{
  "accessors": [
    {
      "name": "|装配体1|Root|参考桩体0223-1|white_1_0_positions",
      "componentType": 5126,
      "count": 1810,
      "min": [
        -0.32499998807907104,
        0.0003000000142492354,
        -0.4000000059604645
      ],
      "max": [
        0.32499998807907104,
        1.8003000020980835,
        0.4000000059604645
      ],
      "type": "VEC3",
      "bufferView": 0,
      "byteOffset": 0
    },
    {
      "name": "|装配体1|Root|参考桩体0223-1|white_1_0_normals",
      "componentType": 5126,
      "count": 1810,
      "min": [
        -1,
        -1,
        -1
      ],
      "max": [
        1,
        1,
        1
      ],
      "type": "VEC3",
      "bufferView": 1,
      "byteOffset": 0
    },
    {
      "name": "|装配体1|Root|参考桩体0223-1|white_1_0_texcoords",
      "componentType": 5126,
      "count": 1810,
      "min": [
        0.2777777910232544,
        0
      ],
      "max": [
        0.7222222089767456,
        1
      ],
      "type": "VEC2",
      "bufferView": 2,
      "byteOffset": 0
    },
    {
      "name": "|装配体1|Root|参考桩体0223-1|white_1_0_indices",
      "componentType": 5123,
      "count": 3528,
      "min": [
        0
      ],
      "max": [
        1809
      ],
      "type": "SCALAR",
      "bufferView": 3,
      "byteOffset": 0
    },
    {
      "name": "|装配体1|Root|门01-1|white-2_1_0_positions",
      "componentType": 5126,
      "count": 15330,
      "min": [
        -0.32499998807907104,
        0.1023000031709671,
        0.30000001192092896
      ],
      "max": [
        0.32499998807907104,
        1.7683000564575195,
        0.4009999930858612
      ],
      "type": "VEC3",
      "bufferView": 0,
      "byteOffset": 21720
    },
    {
      "name": "|装配体1|Root|门01-1|white-2_1_0_normals",
      "componentType": 5126,
      "count": 15330,
      "min": [
        -1,
        -1,
        -1
      ],
      "max": [
        1,
        1,
        1
      ],
      "type": "VEC3",
      "bufferView": 1,
      "byteOffset": 21720
    },
    {
      "name": "|装配体1|Root|门01-1|white-2_1_0_texcoords",
      "componentType": 5126,
      "count": 15330,
      "min": [
        0.3049220144748688,
        0
      ],
      "max": [
        0.6950780153274536,
        1
      ],
      "type": "VEC2",
      "bufferView": 2,
      "byteOffset": 14480
    },
    {
      "name": "|装配体1|Root|门01-1|white-2_1_0_indices",
      "componentType": 5123,
      "count": 33294,
      "min": [
        0
      ],
      "max": [
        15329
      ],
      "type": "SCALAR",
      "bufferView": 3,
      "byteOffset": 7056
    },
    {
      "name": "|装配体1|Root|门01-1|color_1_0_positions",
      "componentType": 5126,
      "count": 90,
      "min": [
        -0.10999999940395355,
        1.3063479661941528,
        0.4009999930858612
      ],
      "max": [
        0.10999999940395355,
        1.526252031326294,
        0.4009999930858612
      ],
      "type": "VEC3",
      "bufferView": 0,
      "byteOffset": 205680
    },
    {
      "name": "|装配体1|Root|门01-1|color_1_0_normals",
      "componentType": 5126,
      "count": 90,
      "min": [
        0,
        0,
        1
      ],
      "max": [
        0,
        0,
        1
      ],
      "type": "VEC3",
      "bufferView": 1,
      "byteOffset": 205680
    },
    {
      "name": "|装配体1|Root|门01-1|color_1_0_texcoords",
      "componentType": 5126,
      "count": 90,
      "min": [
        0,
        0.00021980000019539148
      ],
      "max": [
        1,
        0.999780535697937
      ],
      "type": "VEC2",
      "bufferView": 2,
      "byteOffset": 137120
    },
    {
      "name": "|装配体1|Root|门01-1|color_1_0_indices",
      "componentType": 5123,
      "count": 162,
      "min": [
        0
      ],
      "max": [
        89
      ],
      "type": "SCALAR",
      "bufferView": 3,
      "byteOffset": 73644
    },
    {
      "name": "|装配体1|Root|插枪槽01-1|black_spray_paint_1_0_positions",
      "componentType": 5126,
      "count": 2668,
      "min": [
        -0.3230000138282776,
        0.15029999613761902,
        -0.28299999237060547
      ],
      "max": [
        -0.2529999911785126,
        1.7002999782562256,
        0.28299999237060547
      ],
      "type": "VEC3",
      "bufferView": 0,
      "byteOffset": 206760
    },
    {
      "name": "|装配体1|Root|插枪槽01-1|black_spray_paint_1_0_normals",
      "componentType": 5126,
      "count": 2668,
      "min": [
        -1,
        -1,
        -1
      ],
      "max": [
        1,
        1,
        1
      ],
      "type": "VEC3",
      "bufferView": 1,
      "byteOffset": 206760
    },
    {
      "name": "|装配体1|Root|插枪槽01-1|black_spray_paint_1_0_texcoords",
      "componentType": 5126,
      "count": 2668,
      "min": [
        0.3174194097518921,
        0
      ],
      "max": [
        0.6825805902481079,
        1
      ],
      "type": "VEC2",
      "bufferView": 2,
      "byteOffset": 137840
    },
    {
      "name": "|装配体1|Root|插枪槽01-1|black_spray_paint_1_0_indices",
      "componentType": 5123,
      "count": 6108,
      "min": [
        0
      ],
      "max": [
        2667
      ],
      "type": "SCALAR",
      "bufferView": 3,
      "byteOffset": 73968
    },
    {
      "name": "|装配体1|Root|插枪槽01-2|black_spray_paint_1_0_positions",
      "componentType": 5126,
      "count": 2668,
      "min": [
        0.2529999911785126,
        0.15029999613761902,
        -0.28299999237060547
      ],
      "max": [
        0.3230000138282776,
        1.7002999782562256,
        0.28299999237060547
      ],
      "type": "VEC3",
      "bufferView": 0,
      "byteOffset": 238776
    },
    {
      "name": "|装配体1|Root|插枪槽01-2|black_spray_paint_1_0_normals",
      "componentType": 5126,
      "count": 2668,
      "min": [
        -1,
        -1,
        -1
      ],
      "max": [
        1,
        1,
        1
      ],
      "type": "VEC3",
      "bufferView": 1,
      "byteOffset": 238776
    },
    {
      "name": "|装配体1|Root|插枪槽01-2|black_spray_paint_1_0_texcoords",
      "componentType": 5126,
      "count": 2668,
      "min": [
        0.3174194097518921,
        0
      ],
      "max": [
        0.6825805902481079,
        1
      ],
      "type": "VEC2",
      "bufferView": 2,
      "byteOffset": 159184
    },
    {
      "name": "|装配体1|Root|插枪槽01-2|black_spray_paint_1_0_indices",
      "componentType": 5123,
      "count": 6108,
      "min": [
        0
      ],
      "max": [
        2667
      ],
      "type": "SCALAR",
      "bufferView": 3,
      "byteOffset": 86184
    },
    {
      "name": "|装配体1|Root|后门01-1|white-3_1_0_positions",
      "componentType": 5126,
      "count": 13994,
      "min": [
        -0.32499998807907104,
        0.1023000031709671,
        -0.4000000059604645
      ],
      "max": [
        0.32499998807907104,
        1.7683000564575195,
        -0.30000001192092896
      ],
      "type": "VEC3",
      "bufferView": 0,
      "byteOffset": 270792
    },
    {
      "name": "|装配体1|Root|后门01-1|white-3_1_0_normals",
      "componentType": 5126,
      "count": 13994,
      "min": [
        -1,
        -1,
        -1
      ],
      "max": [
        1,
        1,
        1
      ],
      "type": "VEC3",
      "bufferView": 1,
      "byteOffset": 270792
    },
    {
      "name": "|装配体1|Root|后门01-1|white-3_1_0_texcoords",
      "componentType": 5126,
      "count": 13994,
      "min": [
        0.3049220144748688,
        0
      ],
      "max": [
        0.6950780153274536,
        1
      ],
      "type": "VEC2",
      "bufferView": 2,
      "byteOffset": 180528
    },
    {
      "name": "|装配体1|Root|后门01-1|white-3_1_0_indices",
      "componentType": 5123,
      "count": 30420,
      "min": [
        0
      ],
      "max": [
        13993
      ],
      "type": "SCALAR",
      "bufferView": 3,
      "byteOffset": 98400
    }
  ],
  "asset": {
    "generator": "obj2gltf",
    "version": "2.0"
  },
  "buffers": [
    {
      "name": "0313",
      "byteLength": 1329160,
      "uri": "data:application/octet-stream;base64,"
    }
  ],
  "bufferViews": [
    {
      "name": "bufferView_0",
      "buffer": 0,
      "byteLength": 438720,
      "byteOffset": 0,
      "byteStride": 12,
      "target": 34962
    },
    {
      "name": "bufferView_1",
      "buffer": 0,
      "byteLength": 438720,
      "byteOffset": 438720,
      "byteStride": 12,
      "target": 34962
    },
    {
      "name": "bufferView_2",
      "buffer": 0,
      "byteLength": 292480,
      "byteOffset": 877440,
      "byteStride": 8,
      "target": 34962
    },
    {
      "name": "bufferView_3",
      "buffer": 0,
      "byteLength": 159240,
      "byteOffset": 1169920,
      "target": 34963
    }
  ],
  "materials": [
    {
      "name": "white",
      "pbrMetallicRoughness": {
        "baseColorFactor": [
          1,
          1,
          1,
          1
        ],
        "metallicFactor": 0,
        "roughnessFactor": 1
      },
      "emissiveFactor": [
        0,
        0,
        0
      ],
      "alphaMode": "OPAQUE",
      "doubleSided": false
    },
    {
      "name": "color",
      "pbrMetallicRoughness": {
        "baseColorFactor": [
          0.2980392,
          0.2980392,
          0.2980392,
          1
        ],
        "metallicFactor": 0,
        "roughnessFactor": 0.90009891
      },
      "emissiveFactor": [
        0,
        0,
        0
      ],
      "alphaMode": "OPAQUE",
      "doubleSided": false
    },
    {
      "name": "black_spray_paint",
      "pbrMetallicRoughness": {
        "baseColorFactor": [
          0.05882353,
          0.05882353,
          0.05882353,
          1
        ],
        "metallicFactor": 0,
        "roughnessFactor": 1
      },
      "emissiveFactor": [
        0,
        0,
        0
      ],
      "alphaMode": "OPAQUE",
      "doubleSided": false
    }
  ],
  "meshes": [
    {
      "name": "|装配体1|Root|参考桩体0223-1|white_1",
      "primitives": [
        {
          "attributes": {
            "POSITION": 0,
            "NORMAL": 1,
            "TEXCOORD_0": 2
          },
          "indices": 3,
          "material": 0,
          "mode": 4
        }
      ]
    },
    {
      "name": "|装配体1|Root|门01-1|white-2_1",
      "primitives": [
        {
          "attributes": {
            "POSITION": 4,
            "NORMAL": 5,
            "TEXCOORD_0": 6
          },
          "indices": 7,
          "material": 0,
          "mode": 4
        }
      ]
    },
    {
      "name": "|装配体1|Root|门01-1|color_1",
      "primitives": [
        {
          "attributes": {
            "POSITION": 8,
            "NORMAL": 9,
            "TEXCOORD_0": 10
          },
          "indices": 11,
          "material": 1,
          "mode": 4
        }
      ]
    },
    {
      "name": "|装配体1|Root|插枪槽01-1|black_spray_paint_1",
      "primitives": [
        {
          "attributes": {
            "POSITION": 12,
            "NORMAL": 13,
            "TEXCOORD_0": 14
          },
          "indices": 15,
          "material": 2,
          "mode": 4
        }
      ]
    },
    {
      "name": "|装配体1|Root|插枪槽01-2|black_spray_paint_1",
      "primitives": [
        {
          "attributes": {
            "POSITION": 16,
            "NORMAL": 17,
            "TEXCOORD_0": 18
          },
          "indices": 19,
          "material": 2,
          "mode": 4
        }
      ]
    },
    {
      "name": "|装配体1|Root|后门01-1|white-3_1",
      "primitives": [
        {
          "attributes": {
            "POSITION": 20,
            "NORMAL": 21,
            "TEXCOORD_0": 22
          },
          "indices": 23,
          "material": 0,
          "mode": 4
        }
      ]
    }
  ],
  "nodes": [
    {
      "name": "|装配体1|Root|参考桩体0223-1|white",
      "mesh": 0
    },
    {
      "name": "|装配体1|Root|门01-1|white-2",
      "mesh": 1
    },
    {
      "name": "|装配体1|Root|门01-1|color",
      "mesh": 2
    },
    {
      "name": "|装配体1|Root|插枪槽01-1|black_spray_paint",
      "mesh": 3
    },
    {
      "name": "|装配体1|Root|插枪槽01-2|black_spray_paint",
      "mesh": 4
    },
    {
      "name": "|装配体1|Root|后门01-1|white-3",
      "mesh": 5
    }
  ],
  "scene": 0,
  "scenes": [
    {
      "nodes": [
        0,
        1,
        2,
        3,
        4,
        5
      ]
    }
  ]
}
